<svg width="178" height="26" viewBox="0 0 178 26" fill="none" xmlns="http://www.w3.org/2000/svg">
<path d="M6.53812 2.75665C8.23457 2.75665 9.71705 3.09289 10.9856 3.76535C12.2541 4.43782 13.2322 5.38539 13.92 6.60805C14.623 7.81544 14.9745 9.21386 14.9745 10.8033C14.9745 12.3775 14.623 13.7759 13.92 14.9986C13.2322 16.2213 12.2464 17.1688 10.9626 17.8413C9.69413 18.5138 8.21929 18.85 6.53812 18.85H0.508844V2.75665H6.53812ZM6.28594 15.4571C7.76843 15.4571 8.92232 15.0521 9.74762 14.2421C10.5729 13.4321 10.9856 12.2858 10.9856 10.8033C10.9856 9.32085 10.5729 8.16696 9.74762 7.34165C8.92232 6.51635 7.76843 6.1037 6.28594 6.1037H4.42902V15.4571H6.28594ZM29.2238 12.2476C29.2238 12.6144 29.2009 12.9965 29.1551 13.3939H20.2831C20.3442 14.1886 20.5964 14.7999 21.0396 15.2279C21.4981 15.6405 22.056 15.8468 22.7131 15.8468C23.6913 15.8468 24.3714 15.4342 24.7535 14.6089H28.9258C28.7119 15.4495 28.3221 16.206 27.7566 16.8785C27.2064 17.5509 26.511 18.0782 25.6705 18.4603C24.8299 18.8424 23.89 19.0334 22.8507 19.0334C21.5975 19.0334 20.4818 18.7659 19.5036 18.231C18.5255 17.6961 17.7613 16.9319 17.2111 15.9385C16.6609 14.9451 16.3858 13.7836 16.3858 12.4539C16.3858 11.1243 16.6533 9.96275 17.1882 8.96933C17.7384 7.97591 18.5026 7.21175 19.4807 6.67683C20.4588 6.14191 21.5822 5.87445 22.8507 5.87445C24.0886 5.87445 25.189 6.13427 26.1519 6.65391C27.1147 7.17354 27.8636 7.91478 28.3985 8.87763C28.9487 9.84048 29.2238 10.9638 29.2238 12.2476ZM25.212 11.216C25.212 10.5435 24.9827 10.0086 24.5242 9.61123C24.0657 9.21386 23.4926 9.01518 22.8048 9.01518C22.1477 9.01518 21.5898 9.20622 21.1313 9.58831C20.6881 9.97039 20.413 10.5129 20.306 11.216H25.212ZM36.4959 19.0334C35.3802 19.0334 34.3868 18.8424 33.5157 18.4603C32.6445 18.0782 31.9568 17.5586 31.4524 16.9014C30.9481 16.2289 30.6653 15.48 30.6042 14.6547H34.4785C34.5244 15.0979 34.7307 15.4571 35.0975 15.7322C35.4643 16.0073 35.9151 16.1449 36.4501 16.1449C36.9391 16.1449 37.3136 16.0532 37.5734 15.8698C37.8485 15.6711 37.986 15.4189 37.986 15.1132C37.986 14.7464 37.795 14.479 37.4129 14.3109C37.0308 14.1275 36.4118 13.9288 35.556 13.7148C34.639 13.5008 33.8748 13.2792 33.2635 13.05C32.6521 12.8054 32.1249 12.431 31.6817 11.9267C31.2384 11.407 31.0168 10.7116 31.0168 9.84048C31.0168 9.10688 31.2155 8.44206 31.6129 7.84601C32.0255 7.23467 32.6216 6.75325 33.401 6.40173C34.1958 6.05021 35.1357 5.87445 36.2208 5.87445C37.8256 5.87445 39.0864 6.27182 40.0034 7.06656C40.9357 7.86129 41.4706 8.91584 41.6082 10.2302H37.986C37.9249 9.78699 37.7262 9.43547 37.39 9.17566C37.069 8.91584 36.6411 8.78593 36.1062 8.78593C35.6477 8.78593 35.2962 8.87763 35.0516 9.06103C34.8071 9.22915 34.6848 9.46604 34.6848 9.77171C34.6848 10.1385 34.8759 10.4136 35.258 10.597C35.6553 10.7804 36.2667 10.9638 37.092 11.1472C38.0395 11.3917 38.8113 11.6363 39.4074 11.8808C40.0034 12.1101 40.5231 12.4921 40.9663 13.0271C41.4248 13.5467 41.6617 14.2497 41.677 15.1362C41.677 15.885 41.463 16.5575 41.0351 17.1536C40.6224 17.7343 40.0187 18.1928 39.224 18.5291C38.4445 18.8653 37.5352 19.0334 36.4959 19.0334ZM46.0469 4.7282C45.3591 4.7282 44.7936 4.52952 44.3504 4.13215C43.9225 3.7195 43.7085 3.21515 43.7085 2.61911C43.7085 2.00777 43.9225 1.50342 44.3504 1.10605C44.7936 0.693404 45.3591 0.487079 46.0469 0.487079C46.7193 0.487079 47.2695 0.693404 47.6975 1.10605C48.1407 1.50342 48.3623 2.00777 48.3623 2.61911C48.3623 3.21515 48.1407 3.7195 47.6975 4.13215C47.2695 4.52952 46.7193 4.7282 46.0469 4.7282ZM47.9955 6.05785V18.85H44.0753V6.05785H47.9955ZM55.6965 5.87445C56.5982 5.87445 57.3853 6.05785 58.0578 6.42465C58.7455 6.79145 59.2728 7.27288 59.6396 7.86893V6.05785H63.5598V18.8271C63.5598 20.0039 63.3229 21.0661 62.8491 22.0137C62.3906 22.9765 61.6799 23.7407 60.7171 24.3062C59.7695 24.8716 58.585 25.1544 57.1637 25.1544C55.2686 25.1544 53.7326 24.7035 52.5558 23.8018C51.3789 22.9154 50.7065 21.708 50.5384 20.1797H54.4127C54.535 20.6687 54.8253 21.0508 55.2838 21.3259C55.7423 21.6163 56.3078 21.7615 56.9803 21.7615C57.7903 21.7615 58.4322 21.5246 58.906 21.0508C59.3951 20.5923 59.6396 19.8511 59.6396 18.8271V17.016C59.2575 17.6121 58.7302 18.1011 58.0578 18.4832C57.3853 18.85 56.5982 19.0334 55.6965 19.0334C54.6419 19.0334 53.6867 18.7659 52.8309 18.231C51.975 17.6808 51.2949 16.909 50.7905 15.9156C50.3015 14.9069 50.0569 13.7454 50.0569 12.431C50.0569 11.1166 50.3015 9.96275 50.7905 8.96933C51.2949 7.97591 51.975 7.21175 52.8309 6.67683C53.6867 6.14191 54.6419 5.87445 55.6965 5.87445ZM59.6396 12.4539C59.6396 11.4758 59.3645 10.704 58.8143 10.1385C58.2794 9.57302 57.6222 9.29028 56.8427 9.29028C56.0633 9.29028 55.3985 9.57302 54.8483 10.1385C54.3133 10.6887 54.0459 11.4529 54.0459 12.431C54.0459 13.4091 54.3133 14.1886 54.8483 14.7694C55.3985 15.3348 56.0633 15.6176 56.8427 15.6176C57.6222 15.6176 58.2794 15.3348 58.8143 14.7694C59.3645 14.2039 59.6396 13.4321 59.6396 12.4539ZM74.1903 5.92031C75.6881 5.92031 76.8802 6.40937 77.7666 7.38751C78.6684 8.35036 79.1192 9.68001 79.1192 11.3765V18.85H75.222V11.9037C75.222 11.0479 75.0004 10.383 74.5571 9.90926C74.1139 9.43547 73.5179 9.19858 72.769 9.19858C72.0201 9.19858 71.4241 9.43547 70.9808 9.90926C70.5376 10.383 70.316 11.0479 70.316 11.9037V18.85H66.3958V6.05785H70.316V7.7543C70.7134 7.18882 71.2483 6.7456 71.9208 6.42465C72.5932 6.08842 73.3498 5.92031 74.1903 5.92031Z" fill="black"/>
<path d="M91.8616 16.0073H85.8552L84.8924 18.85H80.7888L86.6117 2.75665H91.1509L96.9738 18.85H92.8244L91.8616 16.0073ZM90.8529 12.9812L88.8584 7.08948L86.8868 12.9812H90.8529ZM109.429 7.84601C109.139 7.31109 108.718 6.90608 108.168 6.63098C107.633 6.3406 106.999 6.1954 106.265 6.1954C104.997 6.1954 103.981 6.6157 103.216 7.45628C102.452 8.28158 102.07 9.38962 102.07 10.7804C102.07 12.2629 102.468 13.4244 103.262 14.265C104.072 15.0903 105.18 15.503 106.586 15.503C107.549 15.503 108.359 15.2584 109.016 14.7694C109.689 14.2803 110.178 13.5773 110.484 12.6603H105.509V9.77171H114.037V13.4168C113.747 14.3949 113.25 15.3043 112.547 16.1449C111.859 16.9854 110.98 17.6655 109.911 18.1852C108.841 18.7048 107.633 18.9646 106.288 18.9646C104.699 18.9646 103.278 18.6208 102.024 17.933C100.786 17.23 99.8159 16.2595 99.1129 15.0215C98.4251 13.7836 98.0812 12.3699 98.0812 10.7804C98.0812 9.19094 98.4251 7.77723 99.1129 6.53928C99.8159 5.28605 100.786 4.31555 102.024 3.6278C103.262 2.92477 104.676 2.57325 106.265 2.57325C108.191 2.57325 109.811 3.0394 111.126 3.97168C112.455 4.90396 113.334 6.19541 113.762 7.84601H109.429ZM120.129 5.89738V9.15273H125.378V12.1788H120.129V15.7093H126.066V18.85H116.208V2.75665H126.066V5.89738H120.129ZM143.008 18.85H139.088L132.531 8.92348V18.85H128.611V2.75665H132.531L139.088 12.729V2.75665H143.008V18.85ZM145.185 10.7804C145.185 9.19094 145.529 7.77723 146.217 6.53928C146.904 5.28605 147.86 4.31555 149.082 3.6278C150.32 2.92477 151.719 2.57325 153.277 2.57325C155.188 2.57325 156.823 3.0776 158.183 4.0863C159.544 5.095 160.453 6.47051 160.911 8.21281H156.602C156.281 7.54034 155.822 7.02835 155.226 6.67683C154.645 6.32531 153.981 6.14956 153.232 6.14956C152.024 6.14956 151.046 6.56985 150.297 7.41043C149.548 8.25101 149.174 9.37434 149.174 10.7804C149.174 12.1865 149.548 13.3098 150.297 14.1504C151.046 14.991 152.024 15.4113 153.232 15.4113C153.981 15.4113 154.645 15.2355 155.226 14.884C155.822 14.5325 156.281 14.0205 156.602 13.348H160.911C160.453 15.0903 159.544 16.4658 158.183 17.4745C156.823 18.4679 155.188 18.9646 153.277 18.9646C151.719 18.9646 150.32 18.6208 149.082 17.933C147.86 17.23 146.904 16.2595 146.217 15.0215C145.529 13.7836 145.185 12.3699 145.185 10.7804ZM177.113 2.75665L171.542 13.5314V18.85H167.622V13.5314L162.051 2.75665H166.499L169.617 9.49661L172.711 2.75665H177.113Z" fill="#F55F1D"/>
</svg>
