<svg width="24" height="24" viewBox="0 0 24 24" fill="none" xmlns="http://www.w3.org/2000/svg">
<g id="ep:arrow-right-bold">
<path id="Vector" d="M20.811 7.97136C20.5423 7.70275 20.1779 7.55185 19.798 7.55185C19.418 7.55185 19.0537 7.70275 18.785 7.97136L11.6925 15.0638L4.60012 7.97136C4.32989 7.71036 3.96795 7.56594 3.59227 7.5692C3.2166 7.57247 2.85723 7.72316 2.59157 7.98881C2.32592 8.25447 2.17523 8.61383 2.17197 8.98951C2.1687 9.36519 2.31312 9.72712 2.57412 9.99735L10.6795 18.1028C10.9482 18.3714 11.3126 18.5223 11.6925 18.5223C12.0725 18.5223 12.4368 18.3714 12.7055 18.1028L20.811 9.99735C21.0796 9.72866 21.2305 9.36429 21.2305 8.98436C21.2305 8.60443 21.0796 8.24005 20.811 7.97136V7.97136Z" fill="black"/>
</g>
</svg>
