<svg width="180" height="34" viewBox="0 0 180 34" fill="none" xmlns="http://www.w3.org/2000/svg">
<g clip-path="url(#clip0_2_552)">
<path d="M3.80218 26.1926C3.13969 26.194 2.4887 26.0195 1.91571 25.687C1.34272 25.3544 0.868263 24.8758 0.540811 24.2999C0.218316 23.7281 0.0574543 23.0793 0.075458 22.423C0.0934618 21.7668 0.289652 21.1278 0.643014 20.5746L7.35962 10.0276C7.70335 9.46074 8.19139 8.99526 8.77388 8.67871C9.35637 8.36217 10.0124 8.2059 10.6751 8.22588C11.3373 8.24174 11.9833 8.43324 12.5472 8.7808C13.111 9.12835 13.5724 9.61948 13.8841 10.2039C14.1912 10.7838 14.3346 11.4364 14.299 12.0916C14.2634 12.7468 14.0502 13.38 13.6822 13.9233L6.96978 24.4713C6.62933 25.0017 6.16049 25.4376 5.6067 25.7386C5.05291 26.0395 4.43211 26.1958 3.80183 26.1929L3.80218 26.1926Z" fill="#F62B54"/>
<path d="M15.3226 26.1925C13.968 26.1925 12.7215 25.4682 12.0668 24.304C11.7451 23.7337 11.5847 23.0867 11.6028 22.4322C11.6209 21.7777 11.8167 21.1405 12.1694 20.5888L18.873 10.0658C19.2116 9.4909 19.6979 9.0171 20.2814 8.69349C20.8649 8.36989 21.5243 8.20828 22.1913 8.22542C23.5575 8.25562 24.7955 9.01986 25.4217 10.215C25.7273 10.8004 25.8662 11.4585 25.8235 12.1174C25.7808 12.7764 25.558 13.4109 25.1794 13.952L18.4775 24.4747C18.1382 25.0028 17.6712 25.437 17.1199 25.7372C16.5685 26.0373 15.9504 26.1938 15.3226 26.1921V26.1925Z" fill="#FFCC00"/>
<path d="M26.5857 26.2806C28.4955 26.2806 30.0437 24.7649 30.0437 22.8952C30.0437 21.0256 28.4955 19.5099 26.5857 19.5099C24.6758 19.5099 23.1276 21.0256 23.1276 22.8952C23.1276 24.7649 24.6758 26.2806 26.5857 26.2806Z" fill="#00CA72"/>
<path d="M176.806 19.7066C177.85 19.7066 178.475 20.4494 178.475 21.666V25.8352H179.894V21.5705C179.894 19.5018 178.919 18.3021 177.086 18.3021C176.369 18.3021 175.23 18.4984 174.552 19.8175C174.394 19.4284 174.134 19.0893 173.799 18.8361C173.464 18.583 173.066 18.4254 172.649 18.38C172.386 18.332 172.118 18.3163 171.852 18.3333C171.269 18.38 170.23 18.7432 169.841 19.5654V18.4598H168.421V25.8352H169.841V21.8553C169.841 20.3068 170.855 19.7066 171.869 19.7066C172.82 19.7066 173.445 20.4336 173.445 21.6502V25.8352H174.856V21.8553C174.856 20.6225 175.596 19.6922 176.805 19.7066H176.806ZM163.209 24.6028C163.531 24.6094 163.85 24.5494 164.148 24.4264C164.446 24.3035 164.714 24.1203 164.938 23.8885C165.163 23.6549 165.339 23.3782 165.455 23.075C165.57 22.7717 165.623 22.4483 165.611 22.124C165.611 20.6383 164.518 19.7066 163.209 19.7066C161.898 19.7066 160.806 20.6383 160.806 22.124C160.794 22.4473 160.846 22.77 160.961 23.0725C161.076 23.375 161.251 23.6511 161.476 23.8843C161.698 24.1159 161.965 24.2993 162.262 24.423C162.558 24.5466 162.877 24.6078 163.198 24.6028H163.209ZM163.209 25.9859C161.134 25.9859 159.402 24.4536 159.402 22.1155C159.402 19.7775 161.134 18.2933 163.209 18.2933C165.283 18.2933 167.03 19.7775 167.03 22.1155C167.03 24.4536 165.274 25.9929 163.199 25.9929L163.209 25.9859ZM152.095 22.1155L152.081 22.124C152.081 19.7859 153.858 18.3021 155.947 18.2933C156.472 18.2831 156.993 18.3833 157.477 18.5872C157.96 18.7911 158.396 19.0944 158.755 19.4772L157.679 20.3939C157.45 20.1695 157.18 19.9926 156.883 19.8733C156.585 19.7541 156.268 19.6949 155.947 19.6992C154.638 19.6992 153.499 20.6313 153.499 22.1155C153.499 23.1186 154.096 24.0226 155.011 24.4065C155.459 24.5939 155.952 24.6429 156.428 24.547C156.903 24.4511 157.339 24.2149 157.679 23.8688L158.77 24.7851C158.41 25.172 157.973 25.4788 157.486 25.6857C157 25.8927 156.476 25.9951 155.947 25.9863C153.874 25.9863 152.095 24.4536 152.095 22.1155ZM147.552 24.4195C147.549 24.1591 147.649 23.9082 147.831 23.7219C148.013 23.5357 148.262 23.4293 148.522 23.4263C148.782 23.4293 149.031 23.5357 149.213 23.7219C149.395 23.9082 149.495 24.1591 149.492 24.4195C149.48 24.6691 149.372 24.9045 149.192 25.0777C149.012 25.2508 148.772 25.3486 148.522 25.3513C148.272 25.3486 148.033 25.2508 147.852 25.0777C147.672 24.9045 147.564 24.6691 147.552 24.4195ZM151.434 9.08376H146.38L142.839 18.2153L139.315 9.08376H134.262L140.405 23.513L136.585 33.0527H141.601L151.434 9.08376ZM120.702 17.1093C120.702 19.4147 122.717 20.9316 124.697 20.9316C126.642 20.9316 128.553 19.5197 128.553 17.1079C128.553 14.6962 126.642 13.2832 124.697 13.2832C122.717 13.2832 120.702 14.8015 120.702 17.1079V17.1093ZM128.553 25.1662V23.3406C127.529 24.8919 125.138 25.4781 123.911 25.4781C119.85 25.4781 115.788 22.2764 115.788 17.1079C115.788 11.9412 119.849 8.73922 123.911 8.73922C124.935 8.73922 127.325 9.08095 128.553 10.8739V9.08973H133.263V25.1693L128.553 25.1679V25.1665L128.553 25.1662ZM114.447 25.1662H109.737V23.1685C108.95 24.6485 107.042 25.5111 105.061 25.5111C100.964 25.5111 97.3453 22.2392 97.3453 17.1733C97.3453 12.0122 100.964 8.73641 105.061 8.73641C107.039 8.73641 108.953 9.56176 109.737 11.0432V0.323792H114.447V25.1665V25.1662ZM109.634 17.0725C109.634 14.6617 107.894 13.2488 105.949 13.2488C103.934 13.2488 102.261 14.7643 102.261 17.0725C102.261 19.4544 103.934 20.9629 105.948 20.9629C107.93 20.9657 109.634 19.3806 109.634 17.0725Z" fill="#333333"/>
<path d="M85.6998 16.657C85.6998 14.2125 86.9635 13.3854 88.6353 13.3854C90.2389 13.3854 91.4004 14.4527 91.4004 16.5871V25.1637H96.1446V15.5556C96.1446 10.9764 93.8905 8.73639 90.306 8.73639C88.4291 8.73639 86.5522 9.80408 85.6981 11.4232V9.08374H80.9567V25.1637H85.6998V16.657ZM71.3232 25.4398C66.8179 25.4398 63.0599 22.1341 63.0599 17.071C63.0599 12.0051 66.8136 8.73218 71.3232 8.73218C75.8328 8.73218 79.6189 12.0051 79.6189 17.071C79.6189 22.1369 75.8282 25.4412 71.3232 25.4412V25.4398ZM71.3232 20.7581C73.3013 20.7581 74.9418 19.3093 74.9418 17.0724C74.9418 14.9023 73.3027 13.4209 71.3232 13.4209C70.8466 13.4135 70.3735 13.5032 69.9326 13.6845C69.4918 13.8658 69.0925 14.135 68.759 14.4756C68.4236 14.818 68.1604 15.2243 67.9852 15.6704C67.8099 16.1165 67.7261 16.5933 67.7387 17.0724C67.7401 19.3121 69.3779 20.7581 71.3232 20.7581Z" fill="#333333"/>
<path d="M54.5542 13.3868C55.9531 13.3868 57.1827 14.4896 57.1827 16.5885V25.1665H61.8924V16.0336C61.8924 11.1784 59.5319 8.73358 55.7479 8.73358C54.6241 8.73358 52.5062 9.07531 50.9697 11.5911C50.0818 9.73103 48.3756 8.76624 45.8539 8.76624C44.9784 8.7618 44.1202 9.00961 43.3818 9.48004C42.6434 9.95047 42.0562 10.6236 41.6903 11.419V9.08515H36.9433V25.1651H41.6861V16.657C41.6861 14.2125 43.0179 13.3854 44.4508 13.3854C45.817 13.3854 47.0438 14.4527 47.0793 16.4849V25.1651H51.8235V16.657C51.8235 14.3189 53.0527 13.3882 54.5542 13.3882V13.3868Z" fill="#333333"/>
</g>
<defs>
<clipPath id="clip0_2_552">
<rect width="179.821" height="33.3653" fill="white" transform="translate(0.0738831 0.323792)"/>
</clipPath>
</defs>
</svg>
