<svg width="44" height="44" viewBox="0 0 44 44" fill="none" xmlns="http://www.w3.org/2000/svg">
<path d="M22.9664 37.559C22.8133 37.492 22.6809 37.3838 22.5847 37.2461L17.8124 30.9647L10.8439 31.3666C9.70568 31.4353 8.72537 30.5675 8.65716 29.428C8.65617 29.4141 8.65518 29.4001 8.65477 29.3849C8.63887 28.9143 8.77152 28.4531 9.03435 28.063L13.0998 22.1734L10.7094 15.4769C10.3254 14.3685 10.8915 13.1545 11.988 12.735C12.4173 12.5665 12.8903 12.5487 13.3304 12.685L19.979 14.6371L25.4234 10.1715C26.2894 9.43617 27.588 9.54108 28.3246 10.4077C28.6442 10.783 28.8171 11.2609 28.8141 11.7526L28.896 18.8192L34.6809 22.6784C35.1494 22.9883 35.4715 23.4772 35.5735 24.0299C35.7554 25.08 35.1722 26.1121 34.1793 26.499L27.5592 28.928L26.5802 32.6669C26.4265 33.2247 25.8552 33.5594 25.294 33.4161C24.7442 33.2707 24.4165 32.7072 24.5625 32.1562L25.5304 28.4121C25.7178 27.7306 26.2193 27.179 26.8805 26.9312L33.5266 24.4754L27.7475 20.6039C27.1635 20.2072 26.8232 19.5389 26.8446 18.8339L26.7525 11.7925L21.2224 16.3231C20.6955 16.7939 19.9654 16.9616 19.2861 16.7692L12.6374 14.8171L14.9984 21.464C15.2358 22.1218 15.1397 22.8519 14.7427 23.4267L10.6773 29.3163L17.6388 28.9261C18.3351 28.8731 19.0085 29.1871 19.4154 29.7546L24.1791 36.032C24.4663 36.4222 24.4548 36.958 24.1509 37.3364C23.8557 37.7188 23.3371 37.8472 22.8966 37.6508L22.9664 37.559Z" fill="white"/>
</svg>
