<svg width="33" height="33" viewBox="0 0 33 33" fill="none" xmlns="http://www.w3.org/2000/svg">
<path fill-rule="evenodd" clip-rule="evenodd" d="M29.968 14.9804C29.968 15.5469 29.5075 16.0074 28.941 16.0074H28.9288V15.9829C28.3555 15.9829 27.8909 15.5197 27.8895 14.9464V14.9437V11.4905C27.8895 7.34308 25.6209 5.07443 21.4857 5.07443H11.2972C7.15927 5.07443 4.87704 7.35666 4.87704 11.4905V21.679C4.87704 25.8006 7.15927 28.0828 11.2931 28.0828H21.4816C25.6154 28.0828 27.8855 25.8006 27.8855 21.679C27.8855 21.1057 28.35 20.6398 28.9247 20.6398C29.4993 20.6398 29.9639 21.1057 29.9639 21.679C29.968 26.9159 26.7185 30.1654 21.4857 30.1654H11.2931C6.04804 30.1654 2.79858 26.9159 2.79858 21.6831V11.4946C2.79858 6.24543 6.04804 2.99597 11.2931 2.99597H21.4816C26.6941 2.99597 29.968 6.24543 29.968 11.4905V14.9804ZM14.7716 18.365L20.4989 12.6363C20.897 12.2383 21.5422 12.2383 21.9403 12.6363C22.3383 13.0344 22.3383 13.6796 21.9403 14.0777L15.4916 20.5263C15.3001 20.7165 15.0406 20.8238 14.7716 20.8238C14.4999 20.8238 14.2418 20.7165 14.0503 20.5263L10.8266 17.3013C10.4286 16.9033 10.4286 16.258 10.8266 15.86C11.2247 15.462 11.8699 15.462 12.268 15.86L14.7716 18.365Z" fill="white"/>
</svg>
