<svg width="47" height="47" viewBox="0 0 47 47" fill="none" xmlns="http://www.w3.org/2000/svg">
<path fill-rule="evenodd" clip-rule="evenodd" d="M22.3232 10.1634L20.4376 12.049C18.8622 10.831 16.5837 10.9443 15.14 12.3881L12.6597 14.8683C11.216 16.3121 11.1017 18.5896 12.3197 20.165L10.4446 22.042C8.42261 24.064 8.41877 27.3492 10.435 29.3655L13.7654 32.6958C14.0074 32.9379 14.3542 33.0426 14.6904 32.9734C17.9737 32.301 21.184 30.8294 23.9754 28.7199C24.3933 28.4097 24.4999 27.8477 24.2463 27.402C23.6815 26.4088 23.8448 25.1984 24.6526 24.3906C25.4518 23.5914 26.6804 23.4329 27.6381 24.0025C28.0425 24.2436 28.5545 24.1735 28.8792 23.8488C28.9128 23.8152 28.9436 23.7806 28.9724 23.7422C31.0981 20.9344 32.5755 17.7088 33.246 14.4178C33.3133 14.0816 33.2095 13.7358 32.9674 13.4937L29.6371 10.1634C27.6208 8.14713 24.3395 8.14712 22.3232 10.1634ZM31.1328 14.5408C30.5353 17.0998 29.4028 19.6059 27.8245 21.8585C26.2348 21.3215 24.4423 21.7192 23.2118 22.9497C21.9909 24.1706 21.5865 25.966 22.1023 27.5634C19.8632 29.132 17.3667 30.2627 14.8125 30.8611L11.876 27.9246C10.6541 26.7027 10.6579 24.7105 11.8865 23.4819L14.457 20.9075C14.6492 20.7154 14.7558 20.457 14.7558 20.1861C14.7539 19.9152 14.6472 19.6569 14.4561 19.4657L14.0997 19.1112C13.3274 18.3389 13.3284 17.0815 14.1007 16.3092L16.5809 13.829C17.2274 13.1825 18.2149 13.0769 18.9728 13.5139L16.3792 16.1075C15.9815 16.5052 15.9815 17.1507 16.3792 17.5484C16.7769 17.9461 17.4224 17.9461 17.8201 17.5484L23.7641 11.6043C24.986 10.3824 26.9744 10.3824 28.1963 11.6043L31.1328 14.5408ZM27.476 25.7639L28.719 27.0068C29.1167 27.4045 29.1167 28.05 28.719 28.4477C28.3213 28.8454 27.6758 28.8454 27.2781 28.4477L26.0351 27.2047C25.6374 26.807 25.6374 26.1615 26.0351 25.7639C26.4328 25.3662 27.0783 25.3662 27.476 25.7639ZM34.9801 16.9954C34.6026 17.3729 34.5959 17.9675 34.936 18.3652C34.936 18.3652 36.4681 20.1931 36.9676 20.7541C37.519 21.3766 37.9195 22.2536 37.9868 22.9875C38.0838 24.024 37.785 24.7665 36.9205 25.6349C36.3528 26.2045 33.2866 29.2726 30.9697 31.5895C30.5711 31.9882 30.5711 32.6337 30.9687 33.0313C31.3664 33.429 32.0119 33.429 32.4096 33.0313C34.6459 30.7951 37.8283 27.6108 38.3643 27.0728C39.6428 25.7885 40.1683 24.4293 40.0165 22.7982C39.9079 21.6273 39.3383 20.3584 38.492 19.4026C38.1433 19.0102 37.2563 17.9744 36.7624 17.3975L36.762 17.3971C36.5597 17.1607 36.4233 17.0015 36.4172 16.9954C36.0205 16.5986 35.3769 16.5986 34.9801 16.9954ZM25.9064 36.6485C26.0957 36.4612 26.4857 36.0712 26.9977 35.5592C27.3953 35.1615 28.0437 35.1587 28.4414 35.5563C28.8391 35.954 28.8353 36.6034 28.4366 37.002C27.9179 37.5207 27.5394 37.8992 27.3454 38.0913C26.0601 39.3708 24.7009 39.8963 23.0689 39.7435C21.8998 39.635 20.63 39.0663 19.6751 38.2191C19.2878 37.876 18.276 37.0099 17.6945 36.5121C17.444 36.2976 17.2733 36.1515 17.2669 36.1452C16.8702 35.7485 16.8702 35.1049 17.2669 34.7081C17.6445 34.3306 18.2381 34.3249 18.6377 34.6649C18.6377 34.6649 20.4657 36.1971 21.0267 36.6946C21.6491 37.246 22.5252 37.6475 23.2581 37.7138C24.2975 37.8118 25.039 37.5121 25.9064 36.6485Z" fill="white"/>
</svg>
